<?xml version="1.0" encoding="UTF-8"?><svg id="a" xmlns="http://www.w3.org/2000/svg" viewBox="0 0 696 449"><defs><style>.b{fill:#009ade;}.c{fill:#344054;}.d{fill:#fafafa;stroke:rgba(215,212,195,.72);stroke-miterlimit:3.2;stroke-width:.51px;}</style></defs><rect class="c" width="696" height="449"/><g><path class="d" d="M247.22,196.22h40.9v6.42l-24.69,37.65-1.63,1.85,2.39-.33h24.15v10.69h-44.05v-6.42l24.91-37.85,1.63-1.85-2.28,.33h-21.32v-10.49Z"/><path class="d" d="M332.31,252.49c-1.01-.58-1.83-1.36-2.44-2.33-.61-.98-1.14-2.01-1.57-3.09l-.33-2.17-1.27,1.84c-3.26,2.96-6.13,4.89-8.59,5.79-2.47,.9-5.07,1.35-7.83,1.35-2.61,0-4.95-.45-7.01-1.35-2.07-.9-3.84-2.11-5.33-3.63-1.49-1.52-2.61-3.25-3.37-5.2-.76-1.95-1.14-4.02-1.14-6.19s.47-4.42,1.41-6.53c.94-2.1,2.55-4.01,4.83-5.71,2.28-1.7,5.34-3.15,9.18-4.35,3.84-1.2,8.62-2.01,14.35-2.45-.36,2.54-1.11,4.75-2.23,6.63-1.12,1.89-2.85,3.05-5.17,3.48-2.75,.44-4.75,1.34-5.98,2.72-1.23,1.38-1.85,2.97-1.85,4.79s.67,3.46,2.01,4.73c1.34,1.27,2.95,1.9,4.84,1.9,2.1,0,4.2-.71,6.3-2.13,2.1-1.42,4.09-3.25,5.98-5.51v-16.48c0-3.78-1.03-6.8-3.1-9.06-2.07-2.26-5.02-3.38-8.86-3.38-1.81,0-3.75,.18-5.82,.54-2.07,.36-4.37,1.01-6.91,1.96l-3.7-9.54c3.26-1.44,6.6-2.49,10.01-3.14,3.41-.65,6.38-.98,8.92-.98,7.75,0,13.71,2.01,17.87,6.04,4.16,4.03,6.24,9.89,6.24,17.58v20.14c0,2.03,.13,4.19,.38,6.48,.25,2.29,.71,4.7,1.36,7.24h-11.18Z"/><path class="d" d="M398.96,252.49l-19.03-29.06c-3.04-4.57-6.04-9.11-8.97-13.61-2.94-4.5-5.78-9.03-8.54-13.61h-16.97l19.69,27.87-18.6,28.41h16.53l9.43-17.31,10.66,17.31h15.81Z"/><path class="d" d="M437.58,218.18c.22-1.67,.14-3.27-.22-4.8-.36-1.53-.96-2.87-1.79-4.03-.83-1.16-1.88-2.09-3.15-2.78-1.27-.69-2.74-1.04-4.41-1.04-1.52,0-3.03,.33-4.51,.98-1.49,.65-2.85,1.69-4.08,3.1-1.23,1.42-2.23,3.23-2.99,5.45-.76,2.21-1.14,4.88-1.14,8,0,6.32,1.41,11.2,4.24,14.65,2.83,3.45,6.53,5.17,11.1,5.17,2.54,0,5.02-.31,7.45-.92,2.43-.62,5.24-1.65,8.43-3.1l3.81,10.09c-3.92,1.88-7.6,3.2-11.04,3.95-3.44,.76-6.87,1.14-10.28,1.14-5,0-9.3-.91-12.89-2.72-3.59-1.81-6.57-4.15-8.93-7.02-2.36-2.86-4.11-6.11-5.23-9.74-1.13-3.63-1.69-7.29-1.69-10.99,0-4.49,.74-8.52,2.23-12.07,1.49-3.55,3.52-6.54,6.1-8.97,2.58-2.43,5.61-4.3,9.09-5.6,3.48-1.3,7.18-1.96,11.1-1.96s7.65,.8,10.98,2.4c3.34,1.6,6.02,3.82,8.05,6.65,2.03,2.84,3.28,6.23,3.75,10.2,.47,3.96-.09,8.27-1.69,12.92h-30.46c.8-2.55,1.94-4.68,3.43-6.39,1.49-1.71,3.17-2.57,5.06-2.57h9.68Z"/><path class="b" d="M383.52,196.22h16.42l-16.75,23.95c-.72-.87-1.47-1.92-2.23-3.16-.76-1.23-1.38-2.59-1.85-4.08-.47-1.49-.71-3.03-.71-4.63s.36-3.16,1.09-4.68l4.02-7.4Z"/></g></svg>