<?xml version="1.0" encoding="utf-8"?>
<!-- Generator: Adobe Illustrator 26.1.0, SVG Export Plug-In . SVG Version: 6.00 Build 0)  -->
<svg version="1.1" id="a" xmlns="http://www.w3.org/2000/svg" xmlns:xlink="http://www.w3.org/1999/xlink" x="0px" y="0px"
	 viewBox="0 0 1024 1024" style="enable-background:new 0 0 1024 1024;" xml:space="preserve">
<style type="text/css">
	.st0{fill:#344054;}
	.st1{fill:#FFFFFF;}
	.st2{fill:#009ADE;}
</style>
<g id="b" transform="matrix(0.99895749,0,0,0.99799215,-0.93372196,0.06231743)">
	<path id="c" class="st0" d="M2,0h1020c1.1,0,2,0.9,2,2v1020c0,1.1-0.9,2-2,2H2c-1.1,0-2-0.9-2-2V2C0,0.9,0.9,0,2,0z"/>
</g>
<g>
	<path class="st1" d="M968.5,989.3L647.3,500.4c-51.4-76.9-101.8-153.2-151.4-228.9c-49.5-75.7-97.5-152-144-228.9H65.6l332.1,468.7
		L84,989.3h278.9l159-291.2l179.9,291.2H968.5z"/>
	<path class="st2" d="M705.4,42.6h277.7L699.9,450.4c-12.2-14.8-24.8-32.7-37.7-53.8c-12.8-21-23.2-44.2-31.2-69.5
		c-8-25.3-12-51.6-12-78.8s6.2-53.8,18.4-79.7C637.4,168.6,705.4,42.6,705.4,42.6z"/>
</g>
</svg>
