<?xml version="1.0" encoding="UTF-8"?><svg id="a" xmlns="http://www.w3.org/2000/svg" viewBox="0 0 814.99 1023.99"><defs><style>.d{fill:#009ade;}.e{fill:#231f20;}.f{fill:#fafafa;stroke:#d7d4c3;stroke-miterlimit:3.2;stroke-width:1.32px;}</style></defs><g id="b" transform="matrix(0.99895749,0,0,0.99799215,-0.93372195,0.0585938)"><path id="c" class="f" d="M3,1.41H813.1c.88,0,1.59,.89,1.59,1.99V1022c0,1.1-.71,1.99-1.59,1.99H3c-.88,0-1.59-.89-1.59-1.99V3.41c0-1.1,.71-1.99,1.59-1.99Z"/></g><g><path class="e" d="M796.75,926.84l-281.48-428.46c-45.03-67.4-89.26-134.29-132.69-200.61-43.37-66.37-85.48-133.21-126.22-200.61H5.42L296.52,507.97,21.52,926.84h244.47l139.39-255.27,157.67,255.27h233.7Z"/><path class="d" d="M566.19,97.16h243.38l-248.2,357.4c-10.74-13.01-21.7-28.68-33.01-47.13-11.25-18.45-20.38-38.74-27.39-60.94-7-22.2-10.51-45.22-10.51-69.04s5.4-47.13,16.13-69.85l59.6-110.44Z"/></g></svg>