<?xml version="1.0" encoding="UTF-8"?><svg id="a" xmlns="http://www.w3.org/2000/svg" viewBox="0 0 1024 1024"><defs><style>.d{fill:#009ade;}.e{fill:#231f20;}.f{fill:#fafafa;stroke:rgba(215,212,195,.72);stroke-miterlimit:3.2;stroke-width:1.32px;}</style></defs><g id="b" transform="matrix(0.99895749,0,0,0.99799215,-0.93372196,0.06231743)"><circle id="c" class="f" cx="511.95" cy="516.19" r="498.9"/></g><g><path class="e" d="M823.91,844.42l-225.55-343.33c-36.08-54.01-71.53-107.61-106.33-160.75-34.75-53.19-68.5-106.74-101.14-160.75H189.81l233.27,329.19-220.37,335.64h195.9l111.7-204.55,126.34,204.55h187.26Z"/><path class="d" d="M639.17,179.58h195.02l-198.89,286.39c-8.6-10.43-17.39-22.98-26.45-37.76-9.02-14.78-16.33-31.04-21.95-48.84-5.61-17.79-8.42-36.23-8.42-55.32s4.32-37.76,12.93-55.97l47.75-88.5Z"/></g></svg>