<?xml version="1.0" encoding="UTF-8"?><svg id="a" xmlns="http://www.w3.org/2000/svg" viewBox="0 0 1024 1024"><defs><style>.d{fill:#009ade;}.e{fill:#231f20;}.f{fill:#fafafa;stroke:#d7d4c3;stroke-miterlimit:3.2;stroke-width:1.32px;}</style></defs><g id="b" transform="matrix(0.99895749,0,0,0.99799215,-0.93372196,0.06231743)"><rect id="c" class="f" x="0" y="0" width="1024" height="1024" rx="2" ry="2"/></g><g><path class="e" d="M925.76,952.96l-299.2-455.44c-47.87-71.65-94.88-142.75-141.05-213.24-46.1-70.55-90.86-141.59-134.16-213.24H84.61L394.04,507.72,101.72,952.96H361.58l148.17-271.35,167.6,271.35h248.41Z"/><path class="d" d="M680.69,71.04h258.7l-263.83,379.9c-11.41-13.83-23.07-30.49-35.09-50.09-11.96-19.61-21.67-41.18-29.11-64.78s-11.17-48.06-11.17-73.39,5.74-50.09,17.15-74.25l63.35-117.39Z"/></g></svg>