<svg width="30" height="30" viewBox="0 0 30 30" fill="none" xmlns="http://www.w3.org/2000/svg">
<path d="M28.2838 28.7143L18.8329 14.3283C17.3209 12.0652 15.8358 9.81937 14.3777 7.59272C12.9215 5.36415 11.5076 3.12023 10.1399 0.85714H1.71429L11.4884 14.6505L2.25483 28.7143H10.4631L15.1433 20.1433L20.4372 28.7143H28.2857H28.2838Z" fill="white"/>
<path d="M20.5427 0.85714H28.7143L20.3807 12.8571C20.0203 12.4203 19.6521 11.8942 19.2723 11.2749C18.8945 10.6556 18.588 9.97411 18.3528 9.2286C18.1176 8.48309 18 7.7104 18 6.91053C18 6.11066 18.1812 5.32826 18.5417 4.56528L20.5427 0.85714Z" fill="#009ADE"/>
</svg>
