<svg width="36" height="37" viewBox="0 0 36 37" fill="none" xmlns="http://www.w3.org/2000/svg">
<g clip-path="url(#clip0_753_18275)">
<path d="M28.605 33.5H26.76C26.445 33.5 26.145 33.29 26.055 32.99L10.755 32.93C10.65 33.23 10.41 33.515 10.08 33.515H8.25C7.83 33.515 7.5 33.185 7.5 32.765V8.12C7.5 8.12 7.605 5 8.985 5H27.87C29.22 5 29.355 7.85 29.355 7.88V32.75C29.355 33.17 29.025 33.5 28.605 33.5ZM27.195 32H27.855V7.88C27.855 7.655 27.705 6.875 27.555 6.5H9.33C9.18 6.935 9 7.85 9 8.12V32H9.66C9.9 31.7 10.26 31.415 10.77 31.415H26.1C26.61 31.415 26.97 31.685 27.21 32H27.195Z" fill="white"/>
<path d="M24.6305 29.9746H12.3005C11.1605 29.9746 10.2305 29.0896 10.2305 28.0096V11.9296C10.2305 11.5096 10.5605 11.1796 10.9805 11.1796H25.9505C26.1455 11.1646 26.3405 11.2396 26.4755 11.3746C26.6105 11.5096 26.7005 11.7046 26.7005 11.8996V28.0096C26.7005 29.0896 25.7705 29.9746 24.6305 29.9746ZM11.7455 12.6796V28.0096C11.7455 28.2646 12.0005 28.4746 12.3155 28.4746H24.6305C24.9305 28.4746 25.2005 28.2646 25.2005 28.0096V12.6646H11.7455V12.6796Z" fill="white"/>
<path d="M25.9354 9.215H11.1004C10.8154 9.215 10.5454 9.05 10.4254 8.795C9.61535 7.13 10.3954 5.495 10.4254 5.42C10.5454 5.165 10.8154 5 11.1004 5H25.9354C26.2504 5 26.5354 5.195 26.6404 5.495C26.6554 5.555 27.1354 6.92 26.6554 8.66C26.5654 8.99 26.2654 9.215 25.9354 9.215ZM11.6254 7.715H25.3204C25.3804 7.235 25.3654 6.8 25.3204 6.5H11.6404C11.5654 6.8 11.5054 7.25 11.6404 7.715H11.6254Z" fill="white"/>
<path d="M23.5799 29.8402C23.1599 29.8402 22.8299 29.5102 22.8299 29.0902V27.0352H14.2949V29.0902C14.2949 29.5102 13.9649 29.8402 13.5449 29.8402C13.1249 29.8402 12.7949 29.5102 12.7949 29.0902V26.2852C12.7949 25.8652 13.1249 25.5352 13.5449 25.5352H23.5949C24.0149 25.5352 24.3449 25.8652 24.3449 26.2852V29.0902C24.3449 29.5102 24.0149 29.8402 23.5949 29.8402H23.5799Z" fill="white"/>
</g>
<defs>
<clipPath id="clip0_753_18275">
<rect width="21.855" height="28.5" fill="white" transform="translate(7.5 5)"/>
</clipPath>
</defs>
</svg>
