<svg width="36" height="37" viewBox="0 0 36 37" fill="none" xmlns="http://www.w3.org/2000/svg">
<g clip-path="url(#clip0_753_18239)">
<path d="M17.4308 21.2154C17.2958 21.2154 17.1608 21.1854 17.0558 21.1104L7.42578 15.4254C7.20078 15.2904 7.05078 15.0354 7.05078 14.7654C7.05078 14.4954 7.20078 14.2554 7.44078 14.1204L17.0708 8.73536C17.3108 8.60036 17.5958 8.61536 17.8208 8.73536L27.3458 14.4354C27.5708 14.5704 27.7208 14.8254 27.7058 15.0954C27.7058 15.3654 27.5558 15.6054 27.3308 15.7404L17.8058 21.1254C17.6858 21.1854 17.5658 21.2154 17.4308 21.2154ZM9.31578 14.7954L17.4458 19.6104L25.4708 15.0804L17.4308 10.2654L9.31578 14.7954Z" fill="white"/>
<path d="M17.6406 32.9752C17.5056 32.9752 17.3706 32.9452 17.2506 32.8702C17.0256 32.7352 16.8906 32.4952 16.8906 32.2252V20.7652C16.8906 20.3452 17.2206 20.0152 17.6406 20.0152C18.0606 20.0152 18.3906 20.3452 18.3906 20.7652V30.9952L26.2056 27.0352V15.0352C26.2056 14.6152 26.5356 14.2852 26.9556 14.2852C27.3756 14.2852 27.7056 14.6152 27.7056 15.0352V27.5302C27.7056 27.8152 27.5406 28.0702 27.3006 28.2052L17.9856 32.9152C17.8806 32.9752 17.7606 32.9902 17.6406 32.9902V32.9752Z" fill="white"/>
<path d="M17.6408 32.9753C17.5208 32.9753 17.4008 32.9453 17.2958 32.8853L7.45578 27.7103C7.21578 27.5753 7.05078 27.3203 7.05078 27.0503V14.5703C7.05078 14.1503 7.38078 13.8203 7.80078 13.8203C8.22078 13.8203 8.55078 14.1503 8.55078 14.5703V26.6003L17.9858 31.5653C18.3458 31.7603 18.4958 32.2103 18.3008 32.5853C18.1658 32.8403 17.9108 32.9903 17.6408 32.9903V32.9753Z" fill="white"/>
<path d="M3.75082 30.9205C3.55582 30.9205 3.34582 30.8455 3.19582 30.6805C2.91082 30.3805 2.94082 29.9005 3.24082 29.6155L7.33582 25.8355C7.63582 25.5505 8.11582 25.5805 8.40082 25.8805C8.68582 26.1805 8.65582 26.6605 8.35582 26.9455L4.26082 30.7255C4.11082 30.8605 3.93082 30.9205 3.75082 30.9205Z" fill="white"/>
<path d="M31.1252 31.4302C30.9752 31.4302 30.8252 31.3852 30.7052 31.2952L27.0602 28.7902C26.7152 28.5502 26.6252 28.0852 26.8652 27.7402C27.1052 27.3952 27.5702 27.3202 27.9152 27.5452L31.5602 30.0502C31.9052 30.2902 31.9952 30.7552 31.7552 31.1002C31.6052 31.3102 31.3802 31.4302 31.1402 31.4302H31.1252Z" fill="white"/>
<path d="M17.4297 10.145C17.0097 10.145 16.6797 9.815 16.6797 9.395V4.25C16.6797 3.83 17.0097 3.5 17.4297 3.5C17.8497 3.5 18.1797 3.83 18.1797 4.25V9.395C18.1797 9.815 17.8497 10.145 17.4297 10.145Z" fill="white"/>
</g>
<defs>
<clipPath id="clip0_753_18239">
<rect width="28.875" height="29.475" fill="white" transform="translate(3 3.5)"/>
</clipPath>
</defs>
</svg>
