<svg width="20" height="20" viewBox="0 0 20 20" fill="none" xmlns="http://www.w3.org/2000/svg">
<path fill-rule="evenodd" clip-rule="evenodd" d="M8.1 13.6371L14.1 10.173C14.1455 10.1468 14.1645 10.1216 14.1756 10.1015C14.1895 10.0766 14.2 10.0415 14.2 9.9998C14.2 9.95811 14.1895 9.92302 14.1757 9.89812C14.1645 9.87803 14.1455 9.85284 14.1 9.8266L8.1 6.36249C8.05455 6.33625 8.0232 6.33234 8.00024 6.33274C7.97177 6.33324 7.93611 6.34165 7.9 6.36249C7.86389 6.38334 7.83878 6.41002 7.82411 6.43442C7.81229 6.45411 7.8 6.48321 7.8 6.5357L7.8 13.4639C7.8 13.5164 7.81228 13.5455 7.82411 13.5652C7.83878 13.5896 7.86389 13.6163 7.9 13.6371C7.93611 13.658 7.97177 13.6664 8.00024 13.6669C8.0232 13.6673 8.05455 13.6634 8.1 13.6371ZM15 11.7319C16.3333 10.9621 16.3333 9.03755 15 8.26775L9 4.80365C7.66667 4.03385 6 4.9961 6 6.5357V13.4639C6 15.0035 7.66667 15.9658 9 15.196L15 11.7319Z" fill="#667085"/>
</svg>
