<svg width="36" height="37" viewBox="0 0 36 37" fill="none" xmlns="http://www.w3.org/2000/svg">
<g clip-path="url(#clip0_753_18251)">
<path d="M18.765 23.6753C18.63 23.6753 18.48 23.6303 18.36 23.5553L4.845 14.9453C4.635 14.8103 4.5 14.5703 4.5 14.3153C4.5 14.0603 4.635 13.8203 4.845 13.6853L18.315 5.12031C18.555 4.97031 18.87 4.97031 19.125 5.12031L32.655 13.7453C32.865 13.8803 33 14.1203 33 14.3753C33 14.6303 32.865 14.8703 32.655 15.0053L19.17 23.5553C19.05 23.6303 18.915 23.6753 18.765 23.6753ZM6.645 14.3003L18.765 22.0253L30.855 14.3603L18.72 6.63531L6.645 14.3003Z" fill="white"/>
<path d="M18.765 27.8447C18.63 27.8447 18.48 27.7997 18.36 27.7247L4.845 19.1147C4.635 18.9797 4.5 18.7397 4.5 18.4847C4.5 18.2297 4.635 17.9897 4.845 17.8547L8.115 15.7697C8.37 15.6197 8.67 15.6197 8.925 15.7697L18.765 22.0397L28.575 15.8147C28.815 15.6647 29.13 15.6647 29.385 15.8147L32.655 17.8997C32.865 18.0347 33 18.2747 33 18.5297C33 18.7847 32.865 19.0247 32.655 19.1597L19.17 27.7247C19.05 27.7997 18.915 27.8447 18.765 27.8447ZM6.645 18.4847L18.765 26.2097L30.855 18.5297L28.98 17.3297L19.17 23.5547C18.93 23.7047 18.615 23.7047 18.36 23.5547L8.52 17.2847L6.645 18.4847Z" fill="white"/>
<path d="M18.765 32.0146C18.63 32.0146 18.48 31.9696 18.36 31.8946L4.845 23.2846C4.635 23.1496 4.5 22.9096 4.5 22.6546C4.5 22.3996 4.635 22.1596 4.845 22.0246L8.13 19.9396C8.385 19.7896 8.685 19.7896 8.94 19.9396L18.765 26.2096L28.575 19.9846C28.815 19.8346 29.13 19.8346 29.385 19.9846L32.655 22.0696C32.865 22.2046 33 22.4446 33 22.6996C33 22.9546 32.865 23.1946 32.655 23.3296L19.17 31.8796C19.05 31.9546 18.915 31.9996 18.765 31.9996V32.0146ZM6.645 22.6546L18.765 30.3646L30.855 22.6996L28.98 21.4996L19.17 27.7246C18.93 27.8896 18.615 27.8746 18.36 27.7246L8.535 21.4546L6.645 22.6546Z" fill="white"/>
</g>
<defs>
<clipPath id="clip0_753_18251">
<rect width="28.5" height="27.015" fill="white" transform="translate(4.5 5)"/>
</clipPath>
</defs>
</svg>
