<svg width="16" height="16" viewBox="0 0 16 16" fill="none" xmlns="http://www.w3.org/2000/svg">
<g clip-path="url(#clip0_824_1501)">
<path fill-rule="evenodd" clip-rule="evenodd" d="M7.40004 3.99999C5.52414 3.99999 4.00004 5.52409 4.00004 7.39999C4.00004 9.2759 5.52414 10.8 7.40004 10.8C9.27595 10.8 10.8 9.2759 10.8 7.39999C10.8 5.52409 9.27595 3.99999 7.40004 3.99999ZM3.33337 7.39999C3.33337 5.1559 5.15595 3.33333 7.40004 3.33333C9.64414 3.33333 11.4667 5.1559 11.4667 7.39999C11.4667 9.64409 9.64414 11.4667 7.40004 11.4667C5.15595 11.4667 3.33337 9.64409 3.33337 7.39999Z" fill="#98A2B3"/>
<path fill-rule="evenodd" clip-rule="evenodd" d="M9.8043 9.8043C9.93447 9.67412 10.1455 9.67412 10.2757 9.8043L13.2357 12.7643C13.3659 12.8945 13.3659 13.1055 13.2357 13.2357C13.1055 13.3659 12.8945 13.3659 12.7643 13.2357L9.8043 10.2757C9.67412 10.1455 9.67412 9.93447 9.8043 9.8043Z" fill="#98A2B3"/>
<path fill-rule="evenodd" clip-rule="evenodd" d="M5 6.66666C5 6.48257 5.14924 6.33333 5.33333 6.33333H8.85333C9.03743 6.33333 9.18667 6.48257 9.18667 6.66666C9.18667 6.85076 9.03743 6.99999 8.85333 6.99999H5.33333C5.14924 6.99999 5 6.85076 5 6.66666Z" fill="#98A2B3"/>
<path fill-rule="evenodd" clip-rule="evenodd" d="M5 8.21332C5 8.02923 5.14924 7.87999 5.33333 7.87999H7.78667C7.97076 7.87999 8.12 8.02923 8.12 8.21332C8.12 8.39742 7.97076 8.54666 7.78667 8.54666H5.33333C5.14924 8.54666 5 8.39742 5 8.21332Z" fill="#98A2B3"/>
</g>
<defs>
<clipPath id="clip0_824_1501">
<rect width="10" height="10" fill="white" transform="translate(3.33337 3.33333)"/>
</clipPath>
</defs>
</svg>
