<svg width="20" height="20" viewBox="0 0 20 20" fill="none" xmlns="http://www.w3.org/2000/svg">
<path d="M11.2655 17.1111C13.6785 17.1111 15.6345 15.155 15.6345 12.7421C15.6345 10.3291 13.6785 8.37305 11.2655 8.37305C8.85257 8.37305 6.89648 10.3291 6.89648 12.7421C6.89648 15.155 8.85257 17.1111 11.2655 17.1111Z" stroke="#667085" stroke-miterlimit="10"/>
<path d="M11.266 13.8338C11.8685 13.8338 12.357 13.3453 12.357 12.7428C12.357 12.1403 11.8685 11.6519 11.266 11.6519C10.6635 11.6519 10.175 12.1403 10.175 12.7428C10.175 13.3453 10.6635 13.8338 11.266 13.8338Z" stroke="#667085" stroke-miterlimit="10"/>
<path d="M16.291 8.87305C16.5672 8.87305 16.791 8.64919 16.791 8.37305C16.791 8.0969 16.5672 7.87305 16.291 7.87305V8.87305ZM11.291 8.87305H16.291V7.87305H11.291V8.87305Z" fill="#667085"/>
<path d="M10.8535 6.92804L12.4076 5.46578L10.8535 4" stroke="#667085" stroke-miterlimit="10" stroke-linecap="round"/>
<path d="M12.2649 5.47656C7.70155 5.47656 4 9.17811 4 13.7415" stroke="#667085" stroke-miterlimit="10" stroke-linecap="round"/>
</svg>
