<svg width="36" height="37" viewBox="0 0 36 37" fill="none" xmlns="http://www.w3.org/2000/svg">
<g clip-path="url(#clip0_753_18259)">
<path d="M11.955 31.9401H6.75C6.33 31.9401 6 31.6101 6 31.1901V12.4551C6 12.0351 6.33 11.7051 6.75 11.7051H11.955C12.375 11.7051 12.705 12.0351 12.705 12.4551V31.1901C12.705 31.6101 12.375 31.9401 11.955 31.9401ZM7.5 30.4401H11.205V13.2051H7.5V30.4401Z" fill="white"/>
<path d="M30.6901 13.205H11.9551C11.5351 13.205 11.2051 12.875 11.2051 12.455V7.25C11.2051 6.83 11.5351 6.5 11.9551 6.5H30.6901C31.1101 6.5 31.4401 6.83 31.4401 7.25V12.455C31.4401 12.875 31.1101 13.205 30.6901 13.205ZM12.7051 11.705H29.9401V8H12.7051V11.705Z" fill="white"/>
<path d="M11.955 13.205H6.75C6.33 13.205 6 12.875 6 12.455V7.25C6 6.83 6.33 6.5 6.75 6.5H11.955C12.375 6.5 12.705 6.83 12.705 7.25V12.455C12.705 12.875 12.375 13.205 11.955 13.205ZM7.5 11.705H11.205V8H7.5V11.705Z" fill="white"/>
<path d="M24.9601 31.9401H11.9551C11.5351 31.9401 11.2051 31.6101 11.2051 31.1901V12.4551C11.2051 12.0351 11.5351 11.7051 11.9551 11.7051H30.6901C31.1101 11.7051 31.4401 12.0351 31.4401 12.4551V25.4601C31.4401 25.6551 31.3651 25.8501 31.2151 25.9851L25.4851 31.7151C25.3501 31.8501 25.1551 31.9401 24.9601 31.9401ZM12.7051 30.4401H24.6451L29.9251 25.1601V13.2051H12.7051V30.4401Z" fill="white"/>
<path d="M24.4355 31.9402C24.0155 31.9402 23.6855 31.6102 23.6855 31.1902V24.9502C23.6855 24.5302 24.0155 24.2002 24.4355 24.2002H30.6755C31.0955 24.2002 31.4255 24.5302 31.4255 24.9502C31.4255 25.3702 31.0955 25.7002 30.6755 25.7002H25.1855V31.1902C25.1855 31.6102 24.8555 31.9402 24.4355 31.9402Z" fill="white"/>
<path d="M15.0742 13.205C14.6542 13.205 14.3242 12.875 14.3242 12.455V9.33496C14.3242 8.91496 14.6542 8.58496 15.0742 8.58496C15.4942 8.58496 15.8242 8.91496 15.8242 9.33496V12.455C15.8242 12.875 15.4942 13.205 15.0742 13.205Z" fill="white"/>
<path d="M21.75 13.085C21.33 13.085 21 12.755 21 12.335V10.25C21 9.83 21.33 9.5 21.75 9.5C22.17 9.5 22.5 9.83 22.5 10.25V12.335C22.5 12.755 22.17 13.085 21.75 13.085Z" fill="white"/>
<path d="M27.5547 13.205C27.1347 13.205 26.8047 12.875 26.8047 12.455V9.33496C26.8047 8.91496 27.1347 8.58496 27.5547 8.58496C27.9747 8.58496 28.3047 8.91496 28.3047 9.33496V12.455C28.3047 12.875 27.9747 13.205 27.5547 13.205Z" fill="white"/>
<path d="M11.9559 28.8047H8.83594C8.41594 28.8047 8.08594 28.4747 8.08594 28.0547C8.08594 27.6347 8.41594 27.3047 8.83594 27.3047H11.9559C12.3759 27.3047 12.7059 27.6347 12.7059 28.0547C12.7059 28.4747 12.3759 28.8047 11.9559 28.8047Z" fill="white"/>
<path d="M11.9541 24.6504H9.86914C9.44914 24.6504 9.11914 24.3204 9.11914 23.9004C9.11914 23.4804 9.44914 23.1504 9.86914 23.1504H11.9541C12.3741 23.1504 12.7041 23.4804 12.7041 23.9004C12.7041 24.3204 12.3741 24.6504 11.9541 24.6504Z" fill="white"/>
<path d="M11.9541 20.4805H9.86914C9.44914 20.4805 9.11914 20.1505 9.11914 19.7305C9.11914 19.3105 9.44914 18.9805 9.86914 18.9805H11.9541C12.3741 18.9805 12.7041 19.3105 12.7041 19.7305C12.7041 20.1505 12.3741 20.4805 11.9541 20.4805Z" fill="white"/>
<path d="M11.9559 16.3252H8.83594C8.41594 16.3252 8.08594 15.9952 8.08594 15.5752C8.08594 15.1552 8.41594 14.8252 8.83594 14.8252H11.9559C12.3759 14.8252 12.7059 15.1552 12.7059 15.5752C12.7059 15.9952 12.3759 16.3252 11.9559 16.3252Z" fill="white"/>
</g>
<defs>
<clipPath id="clip0_753_18259">
<rect width="25.44" height="25.44" fill="white" transform="translate(6 6.5)"/>
</clipPath>
</defs>
</svg>
