<svg width="16" height="16" viewBox="0 0 16 16" fill="none" xmlns="http://www.w3.org/2000/svg">
<path fill-rule="evenodd" clip-rule="evenodd" d="M9.1 1.61301L13.06 3.89967C13.7067 4.27967 14.1067 4.96634 14.1133 5.71967V10.2797C14.1133 11.033 13.7133 11.7263 13.0667 12.0997L9.10667 14.3863C8.45333 14.7597 7.65333 14.7597 7.00667 14.3863L3.04667 12.0997C2.4 11.7197 2 11.0263 2 10.2797V5.71967C2 4.96634 2.4 4.27301 3.04667 3.89967L7 1.61301C7.65333 1.23967 8.45333 1.23967 9.1 1.61301ZM8.66667 10.6663V5.33293H8.56272L6.66667 6.06152V6.6699L8.00358 6.17446V10.6663H8.66667Z" fill="#F4B617"/>
</svg>
