<svg width="20" height="20" viewBox="0 0 20 20" fill="none" xmlns="http://www.w3.org/2000/svg">
<path d="M11.866 5.50798V14.6232C11.866 15.1072 12.2583 15.4995 12.7423 15.4995C13.2262 15.4995 13.6186 15.1072 13.6186 14.6232V5.50798C13.6186 5.02402 13.2262 4.63169 12.7423 4.63169C12.2583 4.63169 11.866 5.02402 11.866 5.50798Z" fill="#667085"/>
<path d="M6 5.37614L6 14.4914C6 14.9753 6.39233 15.3677 6.87629 15.3677C7.36026 15.3677 7.75259 14.9753 7.75259 14.4914L7.75259 5.37614C7.75259 4.89218 7.36026 4.49985 6.87629 4.49985C6.39233 4.49985 6 4.89218 6 5.37614Z" fill="#667085"/>
</svg>
