<svg width="37" height="36" viewBox="0 0 37 36" fill="none" xmlns="http://www.w3.org/2000/svg">
<path fill-rule="evenodd" clip-rule="evenodd" d="M12.215 3H24.785C30.245 3 33.5 6.255 33.485 11.715V24.285C33.485 29.745 30.23 33 24.77 33H12.215C6.755 33 3.5 29.745 3.5 24.27V11.715C3.5 6.255 6.755 3 12.215 3ZM21.8 25.335C22.13 25.335 22.46 25.185 22.685 24.9C23.075 24.405 22.985 23.7 22.475 23.325C20.09 21.48 16.88 21.48 14.495 23.325C14.015 23.7 13.925 24.405 14.3 24.9C14.675 25.38 15.38 25.47 15.875 25.095C17.465 23.865 19.52 23.865 21.11 25.095C21.32 25.26 21.56 25.335 21.8 25.335ZM25.115 20.7C25.445 20.7 25.775 20.55 26 20.265C26.375 19.77 26.285 19.065 25.775 18.69C23.5649 16.9819 21.0293 16.1269 18.4933 16.125L15.2737 13.3078C19.1744 12.3078 23.3388 13.1469 26.81 15.825C27.02 15.99 27.26 16.065 27.5 16.065C27.83 16.065 28.16 15.915 28.385 15.63C28.775 15.135 28.685 14.43 28.19 14.055C23.7079 10.5993 18.2373 9.77109 13.2879 11.5702L10.2405 8.90367C9.77287 8.49452 9.06214 8.5419 8.65299 9.00949C8.24385 9.47708 8.29123 10.1878 8.75882 10.597L11.0383 12.5915C10.2739 13.0114 9.52906 13.4992 8.81 14.055C8.33 14.43 8.24 15.135 8.615 15.63C8.99 16.11 9.695 16.2 10.19 15.825C11.0413 15.1663 11.9349 14.6188 12.8567 14.1826L15.5251 16.5175C14.0099 16.9248 12.542 17.6489 11.195 18.69C10.715 19.065 10.61 19.77 11 20.265C11.39 20.76 12.095 20.85 12.59 20.46C14.1526 19.2555 15.9102 18.5738 17.6936 18.4149L26.7591 26.3474C27.2267 26.7565 27.9374 26.7091 28.3465 26.2415C28.7557 25.7739 28.7083 25.0632 28.2407 24.6541L21.7333 18.96C22.67 19.3058 23.5763 19.8058 24.425 20.46C24.635 20.625 24.875 20.7 25.115 20.7Z" fill="#667085"/>
</svg>
