<svg width="20" height="20" viewBox="0 0 20 20" fill="none" xmlns="http://www.w3.org/2000/svg">
<path fill-rule="evenodd" clip-rule="evenodd" d="M8.67724 10.0818L5.84971 6.71211C5.53862 6.34137 5.58698 5.78864 5.95772 5.47756C6.32846 5.16647 6.88118 5.21483 7.19227 5.58557L9.82116 8.71856L12.4499 5.58576C12.761 5.21502 13.3137 5.16666 13.6844 5.47775C14.0552 5.78883 14.1035 6.34156 13.7925 6.7123L10.9651 10.0818L13.7925 13.4514C14.1036 13.8221 14.0552 14.3749 13.6845 14.6859C13.3137 14.997 12.761 14.9487 12.4499 14.5779L9.82117 11.4451L7.19225 14.5781C6.88116 14.9489 6.32843 14.9972 5.9577 14.6861C5.58696 14.375 5.5386 13.8223 5.84969 13.4516L8.67724 10.0818Z" fill="#E22005"/>
</svg>
