<svg width="30" height="30" viewBox="0 0 30 30" fill="none" xmlns="http://www.w3.org/2000/svg">
<path d="M28.2843 28.7146L18.8334 14.3286C17.3214 12.0655 15.8364 9.81965 14.3783 7.593C12.9221 5.36443 11.5082 3.12052 10.1404 0.857422H1.71484L11.4889 14.6508L2.25539 28.7146H10.4636L15.1439 20.1436L20.4378 28.7146H28.2863H28.2843Z" fill="white"/>
<path d="M20.5427 0.857422H28.7143L20.3807 12.8574C20.0203 12.4206 19.6521 11.8945 19.2723 11.2752C18.8945 10.6558 18.588 9.97439 18.3528 9.22888C18.1176 8.48337 18 7.71068 18 6.91081C18 6.11094 18.1812 5.32854 18.5417 4.56556L20.5427 0.857422Z" fill="white"/>
</svg>
