<svg width="16" height="16" viewBox="0 0 16 16" fill="none" xmlns="http://www.w3.org/2000/svg">
<path d="M8.00004 1.33301C4.32004 1.33301 1.33337 4.31967 1.33337 7.99967C1.33337 11.6797 4.32004 14.6663 8.00004 14.6663C11.68 14.6663 14.6667 11.6797 14.6667 7.99967C14.6667 4.31967 11.68 1.33301 8.00004 1.33301ZM11.46 10.6263C11.4334 10.6863 11.4 10.7397 11.3534 10.7863L10.2267 11.913C10.1267 12.013 10 12.0597 9.87337 12.0597C9.74671 12.0597 9.62004 12.013 9.52004 11.913C9.32671 11.7197 9.32671 11.3997 9.52004 11.2063L9.79337 10.933H6.06671C5.20004 10.933 4.50004 10.2263 4.50004 9.36634V8.18634C4.50004 7.91301 4.72671 7.68634 5.00004 7.68634C5.27337 7.68634 5.50004 7.91301 5.50004 8.18634V9.36634C5.50004 9.67968 5.75337 9.93301 6.06671 9.93301H9.79337L9.52004 9.65967C9.32671 9.46634 9.32671 9.14634 9.52004 8.95301C9.71337 8.75968 10.0334 8.75968 10.2267 8.95301L11.3534 10.0797C11.4 10.1263 11.4334 10.1797 11.46 10.2397C11.5134 10.3663 11.5134 10.5063 11.46 10.6263ZM11.5 7.81301C11.5 8.08634 11.2734 8.31301 11 8.31301C10.7267 8.31301 10.5 8.08634 10.5 7.81301V6.63301C10.5 6.31967 10.2467 6.06634 9.93337 6.06634H6.20671L6.48004 6.33301C6.67337 6.52634 6.67337 6.84634 6.48004 7.03967C6.38004 7.13968 6.25337 7.18634 6.12671 7.18634C6.00004 7.18634 5.87337 7.13968 5.77337 7.03967L4.64671 5.91301C4.60004 5.86634 4.56671 5.81301 4.54004 5.75301C4.48671 5.63301 4.48671 5.49301 4.54004 5.37301C4.56671 5.31301 4.60004 5.25301 4.64671 5.20634L5.77337 4.07967C5.96671 3.88634 6.28671 3.88634 6.48004 4.07967C6.67337 4.27301 6.67337 4.59301 6.48004 4.78634L6.20671 5.05967H9.93337C10.8 5.05967 11.5 5.76634 11.5 6.62634V7.81301Z" fill="#7CD4FD"/>
</svg>
