<svg width="20" height="20" viewBox="0 0 20 20" fill="none" xmlns="http://www.w3.org/2000/svg">
<path d="M10.8084 7.31295C10.6311 7.42775 10.4981 7.59613 10.4094 7.77217L10.0105 7.13692C9.67057 6.58586 8.95385 6.42513 8.42186 6.78485C8.24453 6.89965 8.11153 7.06803 8.02287 7.24407L7.9342 7.1063C7.59432 6.55524 6.8776 6.39452 6.34561 6.75424C5.81362 7.11396 5.65846 7.8487 6.00573 8.39976L6.09439 8.53753C5.8949 8.54518 5.70279 8.60641 5.52546 8.72122C4.99346 9.07328 4.8383 9.81568 5.18557 10.3667L7.87509 14.6834L6.33083 14.2089C5.8284 14.14 5.35551 14.4844 5.24468 14.9972C5.14124 15.4794 5.39246 15.9615 5.79145 16.1223C5.88751 16.1835 8.24453 17.6836 9.9144 18.4796C10.9045 18.9541 12.035 18.8699 12.9438 18.2576L14.5546 17.1861C16.0175 16.2141 16.4387 14.1859 15.5003 12.6705L14.259 10.6729L13.4832 9.42535L12.397 7.68032C12.0571 7.12926 11.3404 6.96854 10.8084 7.32826V7.31295ZM15.02 12.9843C15.7885 14.2242 15.4412 15.8774 14.2516 16.681L12.6409 17.7525C11.8946 18.25 10.971 18.3189 10.1582 17.9285C8.5253 17.1479 6.12395 15.6171 6.05745 15.5789C5.87273 15.5023 5.77668 15.3033 5.81362 15.1043C5.85795 14.89 6.05006 14.7523 6.22 14.7676L8.46619 15.4641C8.58441 15.5023 8.70264 15.4641 8.77652 15.3569C8.85041 15.2574 8.85041 15.1196 8.7913 15.0201L5.68062 10.03C5.51068 9.75446 5.58457 9.38708 5.85056 9.21105C6.11656 9.03501 6.47122 9.11155 6.64116 9.38708L7.88248 11.3847L8.50314 12.3796C8.5918 12.5174 8.76913 12.5557 8.90213 12.4715C9.03513 12.3873 9.07207 12.196 8.9908 12.0582L8.37014 11.0632L7.12882 9.06563L6.50817 8.07066C6.33822 7.79513 6.41211 7.42775 6.67811 7.25172C6.9441 7.07569 7.29877 7.15222 7.46871 7.42775L8.08937 8.42273L9.33068 10.4203L9.95134 11.4153C10.04 11.5531 10.2173 11.5913 10.3503 11.5071C10.4833 11.4229 10.5203 11.2316 10.439 11.0938L9.81834 10.0989L8.57703 8.10127C8.40708 7.82574 8.48097 7.45837 8.74697 7.28234C9.01296 7.1063 9.36763 7.18284 9.53757 7.45837L10.4686 8.95848L11.3995 10.4586L11.865 11.2086C11.9537 11.3464 12.131 11.3847 12.264 11.3005C12.397 11.2163 12.434 11.025 12.3527 10.8872L11.8872 10.1371L10.9562 8.63703C10.7863 8.3615 10.8602 7.99412 11.1262 7.81809C11.3922 7.64206 11.7468 7.71859 11.9168 7.99412L13.0029 9.73915L13.7787 10.9867L15.02 12.9843Z" fill="#667085"/>
<path d="M9.38281 4.24666C9.8811 3.6697 10.1171 3.56479 10.493 3.30254C11.5683 2.56822 12.5911 2.28848 12.967 2.20106C13.5789 2.05245 14.1034 2.01748 14.4881 2" stroke="#667085" stroke-miterlimit="10" stroke-linecap="round"/>
<path d="M11.0085 4.84333C11.2883 4.58108 11.5768 4.3975 11.7866 4.27511C12.3985 3.93418 12.9755 3.81179 13.1853 3.76808C13.5262 3.69815 13.8322 3.68066 14.0507 3.68066" stroke="#667085" stroke-miterlimit="10" stroke-linecap="round"/>
</svg>
