<svg width="16" height="16" viewBox="0 0 16 16" fill="none" xmlns="http://www.w3.org/2000/svg">
<path d="M9.99996 15.1665C9.81996 15.1665 9.6533 15.0665 9.56663 14.9132C9.47996 14.7532 9.47996 14.5665 9.5733 14.4065L10.2733 13.2398C10.4133 12.9998 10.7266 12.9265 10.96 13.0665C11.2 13.2065 11.2733 13.5132 11.1333 13.7532L10.9533 14.0532C12.7933 13.6198 14.1733 11.9665 14.1733 9.99316C14.1733 9.71983 14.4 9.49316 14.6733 9.49316C14.9466 9.49316 15.1733 9.71983 15.1733 9.99316C15.1666 12.8465 12.8466 15.1665 9.99996 15.1665Z" fill="#7CD4FD"/>
<path d="M1.33325 6.49967C1.05992 6.49967 0.833252 6.27301 0.833252 5.99967C0.833252 3.15301 3.15325 0.833008 5.99992 0.833008C6.17992 0.833008 6.34658 0.933008 6.43325 1.08634C6.51992 1.24634 6.51992 1.43301 6.42659 1.59301L5.72658 2.75967C5.58659 2.99301 5.27992 3.07301 5.03992 2.92634C4.80659 2.78634 4.72658 2.47967 4.87325 2.23967L5.05325 1.93967C3.20659 2.37301 1.83325 4.02634 1.83325 5.99967C1.83325 6.27301 1.60659 6.49967 1.33325 6.49967Z" fill="#7CD4FD"/>
<path d="M9.86659 8.42046V10.3805C9.86659 12.0138 9.21325 12.6671 7.57992 12.6671H5.61992C3.98659 12.6671 3.33325 12.0138 3.33325 10.3805V8.42046C3.33325 6.78712 3.98659 6.13379 5.61992 6.13379H7.57992C9.21325 6.13379 9.86659 6.78712 9.86659 8.42046Z" fill="#7CD4FD"/>
<path d="M10.3799 3.33301H8.41989C6.81323 3.33301 6.15989 3.97301 6.13989 5.54634H7.57989C9.53989 5.54634 10.4466 6.45967 10.4466 8.41301V9.85301C12.0266 9.83301 12.6599 9.17968 12.6599 7.57301V5.61967C12.6666 3.98634 12.0132 3.33301 10.3799 3.33301Z" fill="#7CD4FD"/>
</svg>
