<svg width="24" height="24" viewBox="0 0 24 24" fill="none" xmlns="http://www.w3.org/2000/svg">
<path d="M19.2102 6.36001C18.1702 4.26001 16.1602 2.71001 13.8302 2.20001C11.3902 1.66001 8.89021 2.24001 6.98021 3.78001C5.06021 5.31001 3.97021 7.60001 3.97021 10.05C3.97021 12.64 5.52022 15.35 7.86021 16.92V17.75C7.85021 18.03 7.84021 18.46 8.18021 18.81C8.53021 19.17 9.05021 19.21 9.46021 19.21H14.5902C15.1302 19.21 15.5402 19.06 15.8202 18.78C16.2002 18.39 16.1902 17.89 16.1802 17.62V16.92C19.2802 14.83 21.2302 10.42 19.2102 6.36001Z" fill="#F4B617"/>
<path d="M15.2602 21.9999C15.2002 21.9999 15.1302 21.9899 15.0702 21.9699C13.0602 21.3999 10.9502 21.3999 8.94015 21.9699C8.57015 22.0699 8.18015 21.8599 8.08015 21.4899C7.97015 21.1199 8.19015 20.7299 8.56015 20.6299C10.8202 19.9899 13.2002 19.9899 15.4602 20.6299C15.8302 20.7399 16.0502 21.1199 15.9402 21.4899C15.8402 21.7999 15.5602 21.9999 15.2602 21.9999Z" fill="#F4B617"/>
</svg>
