<svg width="14" height="14" viewBox="0 0 14 14" fill="none" xmlns="http://www.w3.org/2000/svg">
<path d="M9.44425 1.16663H4.55591C2.43258 1.16663 1.16675 2.43246 1.16675 4.55579V9.43829C1.16675 11.5675 2.43258 12.8333 4.55591 12.8333H9.43841C11.5617 12.8333 12.8276 11.5675 12.8276 9.44413V4.55579C12.8334 2.43246 11.5676 1.16663 9.44425 1.16663ZM10.0626 7.19246C10.0626 7.43163 9.86425 7.62996 9.62508 7.62996C9.38591 7.62996 9.18758 7.43163 9.18758 7.19246V5.43079L4.68425 9.93413C4.59675 10.0216 4.48591 10.0625 4.37508 10.0625C4.26425 10.0625 4.15341 10.0216 4.06591 9.93413C3.89675 9.76496 3.89675 9.48496 4.06591 9.31579L8.56925 4.81246H6.80758C6.56841 4.81246 6.37008 4.61413 6.37008 4.37496C6.37008 4.13579 6.56841 3.93746 6.80758 3.93746H9.62508C9.86425 3.93746 10.0626 4.13579 10.0626 4.37496V7.19246Z" fill="#7CD4FD"/>
</svg>
