<svg width="16" height="16" viewBox="0 0 16 16" fill="none" xmlns="http://www.w3.org/2000/svg">
<path d="M10.6667 1.33301H5.33333C3 1.33301 2 2.66634 2 4.66634V11.333C2 13.333 3 14.6663 5.33333 14.6663H10.6667C13 14.6663 14 13.333 14 11.333V4.66634C14 2.66634 13 1.33301 10.6667 1.33301ZM5.33333 8.16634H8C8.27333 8.16634 8.5 8.39301 8.5 8.66634C8.5 8.93967 8.27333 9.16634 8 9.16634H5.33333C5.06 9.16634 4.83333 8.93967 4.83333 8.66634C4.83333 8.39301 5.06 8.16634 5.33333 8.16634ZM10.6667 11.833H5.33333C5.06 11.833 4.83333 11.6063 4.83333 11.333C4.83333 11.0597 5.06 10.833 5.33333 10.833H10.6667C10.94 10.833 11.1667 11.0597 11.1667 11.333C11.1667 11.6063 10.94 11.833 10.6667 11.833ZM12.3333 6.16634H11C9.98667 6.16634 9.16667 5.34634 9.16667 4.33301V2.99967C9.16667 2.72634 9.39333 2.49967 9.66667 2.49967C9.94 2.49967 10.1667 2.72634 10.1667 2.99967V4.33301C10.1667 4.79301 10.54 5.16634 11 5.16634H12.3333C12.6067 5.16634 12.8333 5.39301 12.8333 5.66634C12.8333 5.93967 12.6067 6.16634 12.3333 6.16634Z" fill="#7CD4FD"/>
</svg>
