<svg width="16" height="16" viewBox="0 0 16 16" fill="none" xmlns="http://www.w3.org/2000/svg">
<path d="M7.99992 1.33337C4.32659 1.33337 1.33325 4.32671 1.33325 8.00004C1.33325 11.6734 4.32659 14.6667 7.99992 14.6667C11.6733 14.6667 14.6666 11.6734 14.6666 8.00004C14.6666 4.32671 11.6733 1.33337 7.99992 1.33337ZM10.6666 8.50004H8.49992V10.6667C8.49992 10.94 8.27325 11.1667 7.99992 11.1667C7.72659 11.1667 7.49992 10.94 7.49992 10.6667V8.50004H5.33325C5.05992 8.50004 4.83325 8.27337 4.83325 8.00004C4.83325 7.72671 5.05992 7.50004 5.33325 7.50004H7.49992V5.33337C7.49992 5.06004 7.72659 4.83337 7.99992 4.83337C8.27325 4.83337 8.49992 5.06004 8.49992 5.33337V7.50004H10.6666C10.9399 7.50004 11.1666 7.72671 11.1666 8.00004C11.1666 8.27337 10.9399 8.50004 10.6666 8.50004Z" fill="#7CD4FD"/>
</svg>
