<svg width="24" height="24" viewBox="0 0 24 24" fill="none" xmlns="http://www.w3.org/2000/svg">
<path d="M8.10979 11.8498C5.28979 12.0498 5.29979 16.1498 8.10979 16.3498H14.7798C15.5898 16.3598 16.3698 16.0498 16.9698 15.5098C18.9498 13.7798 17.8898 10.3098 15.2898 9.97976C14.3598 4.33976 6.20979 6.47976 8.13979 11.8498" fill="#667085"/>
<path d="M9 22.75C4.73 22.75 1.25 19.27 1.25 15C1.25 14.59 1.59 14.25 2 14.25C2.41 14.25 2.75 14.59 2.75 15C2.75 17.96 4.81 20.44 7.58 21.09L7.31 20.64C7.1 20.28 7.21 19.82 7.57 19.61C7.92 19.4 8.39 19.51 8.6 19.87L9.65 21.62C9.79 21.85 9.79 22.14 9.66 22.37C9.52 22.6 9.27 22.75 9 22.75Z" fill="#667085"/>
<path d="M21.9999 9.75C21.5899 9.75 21.2499 9.41 21.2499 9C21.2499 6.04 19.1899 3.56 16.4199 2.91L16.6899 3.36C16.8999 3.72 16.7899 4.18 16.4299 4.39C16.0799 4.6 15.6099 4.49 15.3999 4.13L14.3499 2.38C14.2099 2.15 14.2099 1.86 14.3399 1.63C14.4799 1.4 14.7299 1.25 14.9999 1.25C19.2699 1.25 22.7499 4.73 22.7499 9C22.7499 9.41 22.4099 9.75 21.9999 9.75Z" fill="#667085"/>
</svg>
