<svg width="24" height="25" viewBox="0 0 24 25" fill="none" xmlns="http://www.w3.org/2000/svg">
<path d="M16.19 2.5H7.81C4.17 2.5 2 4.67 2 8.31V16.68C2 20.33 4.17 22.5 7.81 22.5H16.18C19.82 22.5 21.99 20.33 21.99 16.69V8.31C22 4.67 19.83 2.5 16.19 2.5ZM16.06 11.67L12.53 15.2C12.38 15.35 12.19 15.42 12 15.42C11.81 15.42 11.62 15.35 11.47 15.2L7.94 11.67C7.65 11.38 7.65 10.9 7.94 10.61C8.23 10.32 8.71 10.32 9 10.61L12 13.61L15 10.61C15.29 10.32 15.77 10.32 16.06 10.61C16.35 10.9 16.35 11.37 16.06 11.67Z" fill="white"/>
</svg>
