<svg width="20" height="20" viewBox="0 0 20 20" fill="none" xmlns="http://www.w3.org/2000/svg">
<path d="M13.0905 11.5502C13.0905 11.5502 14.9763 9.00225 13.0905 7.36842C11.2048 5.73459 13.0905 4 13.0905 4" stroke="#F25A46" stroke-linecap="round" stroke-linejoin="round"/>
<path d="M9.97214 11.5502C9.97214 11.5502 11.8579 9.00225 9.97214 7.36842C8.0864 5.73459 9.97214 4 9.97214 4" stroke="#F25A46" stroke-linecap="round" stroke-linejoin="round"/>
<path d="M6.556 11.5502C6.556 11.5502 8.44174 9.00225 6.556 7.36842C4.67026 5.73459 6.556 4 6.556 4" stroke="#F25A46" stroke-linecap="round" stroke-linejoin="round"/>
<path d="M16.1444 13.7178H3.87629C3.39233 13.7178 3 14.1101 3 14.5941C3 15.078 3.39233 15.4704 3.87629 15.4704H16.1444C16.6284 15.4704 17.0207 15.078 17.0207 14.5941C17.0207 14.1101 16.6284 13.7178 16.1444 13.7178Z" fill="#F25A46"/>
<path d="M6.50513 14.5942V16.516" stroke="#F25A46" stroke-linecap="round" stroke-linejoin="round"/>
<path d="M13.4521 14.5942V16.48" stroke="#F25A46" stroke-linecap="round" stroke-linejoin="round"/>
</svg>
