<svg width="16" height="16" viewBox="0 0 16 16" fill="none" xmlns="http://www.w3.org/2000/svg">
<path d="M9.70004 14.9468C9.48004 14.9468 9.27337 14.8002 9.21337 14.5735C9.14671 14.3068 9.30004 14.0335 9.56671 13.9602C12.2734 13.2468 14.16 10.7935 14.16 7.9935C14.16 4.5935 11.3934 1.82683 7.99337 1.82683C5.10671 1.82683 3.21337 3.5135 2.32671 4.5335H4.28671C4.56004 4.5335 4.78671 4.76016 4.78671 5.0335C4.78671 5.30683 4.57337 5.54016 4.29337 5.54016H1.34004C1.29337 5.54016 1.24671 5.5335 1.20004 5.52016C1.14004 5.50016 1.08671 5.4735 1.04004 5.44016C0.980041 5.40016 0.933374 5.34683 0.900041 5.28683C0.866707 5.22016 0.840041 5.1535 0.833374 5.08016C0.833374 5.06016 0.833374 5.04683 0.833374 5.02683V2.00016C0.833374 1.72683 1.06004 1.50016 1.33337 1.50016C1.60671 1.50016 1.83337 1.72683 1.83337 2.00016V3.5935C2.92004 2.42683 4.96671 0.833496 8.00004 0.833496C11.9534 0.833496 15.1667 4.04683 15.1667 8.00016C15.1667 11.2535 12.9734 14.1068 9.82671 14.9335C9.78671 14.9402 9.74004 14.9468 9.70004 14.9468Z" fill="#009ADE"/>
<path d="M7.52671 15.1533C7.51337 15.1533 7.49337 15.1533 7.48004 15.1467C6.76671 15.1 6.06671 14.94 5.40004 14.68C5.20671 14.6067 5.08004 14.4133 5.08004 14.2067C5.08004 14.1467 5.09337 14.0867 5.11337 14.0333C5.21337 13.78 5.50671 13.6467 5.76004 13.7467C6.33337 13.9733 6.94004 14.1067 7.55337 14.1533H7.56004C7.82671 14.1667 8.02671 14.3933 8.02671 14.66C8.02671 14.6667 8.02671 14.68 8.02671 14.6867C8.00671 14.9467 7.78671 15.1533 7.52671 15.1533ZM3.85337 13.72C3.74004 13.72 3.63337 13.6867 3.54004 13.6133C2.98004 13.1667 2.49337 12.64 2.08671 12.0467C2.02671 11.96 1.99337 11.8667 1.99337 11.7667C1.99337 11.6 2.07337 11.4467 2.21337 11.3533C2.43337 11.2 2.76004 11.26 2.90671 11.48C3.26004 11.9933 3.68004 12.4467 4.16671 12.8267C4.28004 12.92 4.35337 13.06 4.35337 13.2133C4.35337 13.3267 4.32004 13.44 4.24671 13.5333C4.15337 13.6533 4.00671 13.72 3.85337 13.72ZM1.62671 10.4667C1.40671 10.4667 1.21337 10.3267 1.15337 10.12C0.940041 9.43333 0.833374 8.72 0.833374 8C0.833374 7.72667 1.06004 7.5 1.33337 7.5C1.60671 7.5 1.83337 7.72667 1.83337 8C1.83337 8.62 1.92671 9.23333 2.10671 9.82C2.12004 9.86667 2.12671 9.92 2.12671 9.97333C2.12671 10.1933 1.98671 10.38 1.78004 10.4467C1.72671 10.46 1.68004 10.4667 1.62671 10.4667Z" fill="#009ADE"/>
<path d="M8.00004 10.6668C9.4728 10.6668 10.6667 9.47292 10.6667 8.00016C10.6667 6.5274 9.4728 5.3335 8.00004 5.3335C6.52728 5.3335 5.33337 6.5274 5.33337 8.00016C5.33337 9.47292 6.52728 10.6668 8.00004 10.6668Z" fill="#009ADE"/>
</svg>
