<?xml version="1.0" encoding="UTF-8"?>
<svg id="Layer_1" data-name="Layer 1" xmlns="http://www.w3.org/2000/svg" viewBox="0 0 1148 864.6">
  <defs>
    <style>
      .cls-1 {
        fill: none;
        stroke: #000;
        stroke-miterlimit: 10;
      }

      .cls-2, .cls-3 {
        stroke-width: 0px;
      }

      .cls-3 {
        fill: #010202;
      }
    </style>
  </defs>
  <g>
    <path class="cls-3" d="M.5,864.5C.2,864.5,0,864.3,0,864V.5C0,.2.2,0,.5,0s.5.2.5.5v863.6c0,.3-.2.5-.5.5h0Z"/>
    <path class="cls-3" d="M57.9,864.5c-.3,0-.5-.2-.5-.5V.5C57.4.2,57.6,0,57.9,0s.5.2.5.5v863.6c0,.3-.2.5-.5.5h0Z"/>
    <path class="cls-3" d="M115.2,864.5c-.3,0-.5-.2-.5-.5V.5C114.7.2,114.9,0,115.2,0s.5.2.5.5v863.6c0,.3-.2.5-.5.5h0Z"/>
    <path class="cls-3" d="M172.6,864.5c-.3,0-.5-.2-.5-.5V.5C172.1.2,172.3,0,172.6,0s.5.2.5.5v863.6c0,.3-.3.5-.5.5h0Z"/>
    <path class="cls-3" d="M229.9,864.5c-.3,0-.5-.2-.5-.5V.5C229.4.2,229.6,0,229.9,0s.5.2.5.5v863.6c0,.3-.2.5-.5.5h0Z"/>
    <path class="cls-3" d="M287.3,864.5c-.3,0-.5-.2-.5-.5V.5c0-.3.2-.5.5-.5s.5.2.5.5v863.6c0,.3-.2.5-.5.5h0Z"/>
    <path class="cls-3" d="M344.7,864.5c-.3,0-.5-.2-.5-.5V.5c0-.3.2-.5.5-.5s.5.2.5.5v863.6c0,.3-.2.5-.5.5h0Z"/>
    <path class="cls-3" d="M402,864.5c-.3,0-.5-.2-.5-.5V.5c0-.3.2-.5.5-.5s.5.2.5.5v863.6c0,.3-.2.5-.5.5h0Z"/>
    <path class="cls-3" d="M459.4,864.5c-.3,0-.5-.2-.5-.5V.5c0-.3.2-.5.5-.5s.5.2.5.5v863.6c0,.3-.3.5-.5.5h0Z"/>
    <path class="cls-3" d="M516.8,864.5c-.3,0-.5-.2-.5-.5V.5c0-.3.2-.5.5-.5s.5.2.5.5v863.6c0,.3-.2.5-.5.5h0Z"/>
    <path class="cls-3" d="M574.2,864.5c-.3,0-.5-.2-.5-.5V.5c0-.3.2-.5.5-.5s.5.2.5.5v863.6c0,.3-.2.5-.5.5h0Z"/>
    <path class="cls-3" d="M631.5,864.5c-.3,0-.5-.2-.5-.5V.5c0-.3.2-.5.5-.5s.5.2.5.5v863.6c0,.3-.3.5-.5.5h0Z"/>
    <path class="cls-3" d="M688.6,864.5c-.3,0-.5-.2-.5-.5V.5c0-.3.2-.5.5-.5s.5.2.5.5v863.6c0,.3-.2.5-.5.5h0Z"/>
    <path class="cls-3" d="M746.2,864.5c-.3,0-.5-.2-.5-.5V.5c0-.3.2-.5.5-.5s.5.2.5.5v863.6c0,.3-.3.5-.5.5h0Z"/>
    <path class="cls-3" d="M803.4,864.5c-.3,0-.5-.2-.5-.5V.5c0-.3.2-.5.5-.5s.5.2.5.5v863.6c0,.3,0,.5-.5.5h0Z"/>
    <path class="cls-3" d="M860.8,864.5c-.3,0-.5-.2-.5-.5V.5c0-.3.2-.5.5-.5s.5.2.5.5v863.6c0,.3-.2.5-.5.5h0Z"/>
    <path class="cls-3" d="M918.2,864.5c-.3,0-.5-.2-.5-.5V.5c0-.3.2-.5.5-.5s.5.2.5.5v863.6c0,.3-.2.5-.5.5h0Z"/>
    <path class="cls-3" d="M975.5,864.5c-.3,0-.5-.2-.5-.5V.5c0-.3.2-.5.5-.5s.5.2.5.5v863.6c0,.3-.2.5-.5.5h0Z"/>
    <path class="cls-3" d="M1032.8,864.5c-.3,0-.5-.2-.5-.5V.5c0-.3.2-.5.5-.5s.5.2.5.5v863.6c0,.3-.2.5-.5.5h0Z"/>
    <path class="cls-3" d="M1090.3,806.8c-.3,0-.5-.2-.5-.5V.5c0-.3.2-.5.5-.5s.5.2.5.5v806c0,.3-.3.5-.5.5h0Z"/>
    <path class="cls-3" d="M1147.5,864.5c-.3,0-.5-.2-.5-.5V.5c0-.3.2-.5.5-.5s.5.2.5.5v863.6c0,.3,0,.5-.5.5h0Z"/>
  </g>
  <g>
    <path class="cls-2" d="M1147.3,1H.5C.2,1,0,.8,0,.5S.2,0,.5,0h1147c.3,0,.5.2.5.5-.2.3-.3.5-.7.5Z"/>
    <path class="cls-2" d="M1147.3,58.5H.5c-.3,0-.5-.2-.5-.5s.2-.5.5-.5h1147c.3,0,.5.2.5.5s-.3.5-.7.5Z"/>
    <path class="cls-2" d="M1147.3,116.2H.5c-.3,0-.5-.2-.5-.5s.2-.5.5-.5h1147c.3,0,.5.2.5.5-.2.3-.3.5-.7.5Z"/>
    <path class="cls-2" d="M1147.3,173.7H.5c-.3,0-.5-.2-.5-.5s.2-.5.5-.5h1147c.3,0,.5.2.5.5s-.3.5-.7.5Z"/>
    <path class="cls-2" d="M1147.3,231.2H.5c-.3,0-.5-.2-.5-.5s.2-.5.5-.5h1147c.3,0,.5.2.5.5-.2.3-.3.5-.7.5Z"/>
    <path class="cls-2" d="M1147.3,288.8H.5c-.3,0-.5-.2-.5-.5s.2-.5.5-.5h1147c.3,0,.5.2.5.5s-.3.5-.7.5Z"/>
    <path class="cls-2" d="M1147.3,346.4H.5c-.3,0-.5-.2-.5-.5s.2-.5.5-.5h1147c.3,0,.5.2.5.5s-.3.5-.7.5Z"/>
    <path class="cls-2" d="M1147.3,404H.5c-.3,0-.5-.2-.5-.5s.2-.5.5-.5h1147c.3,0,.5.2.5.5-.2.3-.3.5-.7.5Z"/>
    <path class="cls-2" d="M1147.3,461.4H.5c-.3,0-.5-.2-.5-.5s.2-.5.5-.5h1147c.3,0,.5.2.5.5s-.3.5-.7.5Z"/>
    <path class="cls-2" d="M1147.3,519.1H.5c-.3,0-.5-.2-.5-.5s.2-.5.5-.5h1147c.3,0,.5.2.5.5s-.3.5-.7.5Z"/>
    <path class="cls-2" d="M1147.3,576.6H.5c-.3,0-.5-.2-.5-.5s.2-.5.5-.5h1147c.3,0,.5.2.5.5-.2.3-.3.5-.7.5Z"/>
    <path class="cls-2" d="M1147.3,634.2H.5c-.3,0-.5-.2-.5-.5s.2-.5.5-.5h1147c.3,0,.5.2.5.5s-.3.5-.7.5Z"/>
    <path class="cls-2" d="M1147.3,691.7H.5c-.3,0-.5-.2-.5-.5s.2-.5.5-.5h1147c.3,0,.5.2.5.5s-.3.5-.7.5Z"/>
    <path class="cls-2" d="M1147.3,749.3H.5c-.3,0-.5-.2-.5-.5s.2-.5.5-.5h1147c.3,0,.5.2.5.5s-.3.5-.7.5Z"/>
    <path class="cls-2" d="M1147.3,806.9H.5c-.3,0-.5-.2-.5-.5s.2-.5.5-.5h1147c.3,0,.5.2.5.5s-.3.5-.7.5Z"/>
    <path class="cls-2" d="M1147.3,864.5H.5c-.3,0-.5-.2-.5-.5s.2-.5.5-.5h1147c.3,0,.5.2.5.5s-.3.5-.7.5Z"/>
  </g>
  <g>
    <path class="cls-1" d="M1049.1,823.6h16.8v2.6l-10.1,15.4-.7.8h1c0-.1,9.9-.1,9.9-.1v4.4h-18.1v-2.6l10.2-15.5.7-.8h-.9c0,.1-8.7.1-8.7.1v-4.3Z"/>
    <path class="cls-1" d="M1084,846.7c-.4-.2-.7-.6-1-1-.3-.4-.5-.8-.6-1.3v-.9c-.1,0-.7.8-.7.8-1.3,1.2-2.5,2-3.5,2.4-1,.4-2.1.6-3.2.6s-2-.2-2.9-.6c-.8-.4-1.6-.9-2.2-1.5-.6-.6-1.1-1.3-1.4-2.1-.3-.8-.5-1.6-.5-2.5s.2-1.8.6-2.7c.4-.9,1-1.6,2-2.3.9-.7,2.2-1.3,3.8-1.8,1.6-.5,3.5-.8,5.9-1-.1,1-.5,1.9-.9,2.7-.5.8-1.2,1.2-2.1,1.4-1.1.2-1.9.6-2.5,1.1-.5.6-.8,1.2-.8,2s.3,1.4.8,1.9c.5.5,1.2.8,2,.8s1.7-.3,2.6-.9c.9-.6,1.7-1.3,2.5-2.3v-6.8c0-1.6-.4-2.8-1.3-3.7-.8-.9-2.1-1.4-3.6-1.4s-1.5,0-2.4.2c-.8.1-1.8.4-2.8.8l-1.5-3.9c1.3-.6,2.7-1,4.1-1.3,1.4-.3,2.6-.4,3.7-.4,3.2,0,5.6.8,7.3,2.5,1.7,1.7,2.6,4.1,2.6,7.2v8.3c0,.8,0,1.7.2,2.7.1.9.3,1.9.6,3h-4.6Z"/>
    <path class="cls-1" d="M1100.3,839l-3.7,7.7h-6.8l7.6-11.6-8.1-11.4h7c1.1,1.9,2.3,3.7,3.5,5.6,1.2,1.8,2.4,3.7,3.7,5.6l7.8,11.9h-6.5l-4.5-7.7Z"/>
    <path class="cls-1" d="M1127.1,832.6c0-.7,0-1.3,0-2-.1-.6-.4-1.2-.7-1.7s-.8-.9-1.3-1.1c-.5-.3-1.1-.4-1.8-.4s-1.2.1-1.9.4c-.6.3-1.2.7-1.7,1.3-.5.6-.9,1.3-1.2,2.2-.3.9-.5,2-.5,3.3,0,2.6.6,4.6,1.7,6s2.7,2.1,4.5,2.1,2.1-.1,3.1-.4c1-.3,2.1-.7,3.5-1.3l1.6,4.1c-1.6.8-3.1,1.3-4.5,1.6-1.4.3-2.8.5-4.2.5-2.1,0-3.8-.4-5.3-1.1-1.5-.7-2.7-1.7-3.7-2.9-1-1.2-1.7-2.5-2.1-4-.5-1.5-.7-3-.7-4.5s.3-3.5.9-5c.6-1.5,1.4-2.7,2.5-3.7,1.1-1,2.3-1.8,3.7-2.3,1.4-.5,2.9-.8,4.6-.8s3.1.3,4.5,1c1.4.7,2.5,1.6,3.3,2.7.8,1.2,1.3,2.6,1.5,4.2.2,1.6,0,3.4-.7,5.3h-12.5c.3-1,.8-1.9,1.4-2.6.6-.7,1.3-1.1,2.1-1.1h4Z"/>
    <path class="cls-2" d="M1105,823.6h6.7l-6.9,9.8c-.3-.4-.6-.8-.9-1.3-.3-.5-.6-1.1-.8-1.7-.2-.6-.3-1.2-.3-1.9s.1-1.3.4-1.9l1.7-3Z"/>
  </g>
</svg>